<?xml version="1.0" encoding="iso-8859-1"?>
<!-- Generator: Adobe Illustrator 22.0.1, SVG Export Plug-In . SVG Version: 6.00 Build 0)  -->
<svg version="1.1" id="Calque_1" xmlns="http://www.w3.org/2000/svg" xmlns:xlink="http://www.w3.org/1999/xlink" x="0px" y="0px"
	style="padding: 15" viewBox="0 0 600 600" enable-background="new 0 0 600 600" xml:space="preserve">
<path fill="#333333" d="M372.849,67.503c-2.708-2.859-5.493-5.644-8.352-8.352C325.787,22.49,273.522,0,216,0
	C96.706,0,0,96.706,0,216c0,57.522,22.49,109.788,59.151,148.497c2.708,2.859,5.493,5.645,8.353,8.353
	C106.212,409.51,158.478,432,216,432c119.293,0,216-96.707,216-216C432,158.478,409.509,106.212,372.849,67.503z M11.812,216
	c0-54.54,21.239-105.816,59.805-144.382C110.184,33.052,161.46,11.812,216,11.812c52.567,0,102.096,19.736,140.141,55.693
	L67.506,356.142C31.549,318.097,11.812,268.567,11.812,216z M360.382,360.382C321.816,398.948,270.54,420.188,216,420.188
	c-52.567,0-102.096-19.737-140.141-55.693L364.493,75.858c35.957,38.045,55.694,87.575,55.694,140.142
	C420.188,270.54,398.948,321.816,360.382,360.382z"/>
<g>
	<path fill="#333333" d="M74.904,198.329c-7.923-1.276-15.449,1.265-20.233,7.004c0-1.467,0-2.935,0-4.402
		c0-0.967-0.82-1.79-1.79-1.79c-1.199,0-2.398,0-3.597,0c-0.525,0-0.924,0.191-1.21,0.478c-0.021,0.018-0.04,0.038-0.061,0.058
		c-0.011,0.012-0.022,0.023-0.033,0.035c-0.291,0.286-0.486,0.689-0.486,1.219c0,16.218,0,32.436,0,48.654
		c0,0.967,0.82,1.79,1.79,1.79c1.199,0,2.398,0,3.597,0c0.967,0,1.79-0.82,1.79-1.79c0-6.611,0-13.223,0-19.834
		c0-2.518-0.091-5.055,0.037-7.571c0.534-10.511,8.729-20.742,20.349-16.888c9.452,3.135,7.367,16.83,7.367,24.814
		c0,6.493,0,12.986,0,19.479c0,0.967,0.82,1.79,1.79,1.79c1.199,0,2.398,0,3.597,0c0.967,0,1.79-0.82,1.79-1.79
		c0-10.569,0.305-21.181-0.024-31.745C89.276,208.228,85.185,199.985,74.904,198.329z"/>
	<path fill="#333333" d="M118.479,198.005c-15.376,0-23.726,13.107-24.129,27.253c0.405,14.217,8.727,27.198,24.129,27.252
		c15.076,0.053,24.169-13.105,24.129-27.252C142.568,211.098,133.582,198.005,118.479,198.005z M118.479,245.807
		c-11.299,0-16.597-10.557-16.953-20.55c0.356-9.982,5.664-20.55,16.953-20.55c11.091,0,16.866,10.557,16.953,20.55
		C135.518,235.264,129.459,245.807,118.479,245.807z"/>
	<path fill="#333333" d="M194.396,179.989c-6.617-1.053-14.588-0.17-16.779,7.339c-1.051,3.602-0.617,7.939-0.479,11.812
		c-2.294,0-4.588,0-6.882,0c-0.967,0-1.79,0.82-1.79,1.79c0,1.041,0,2.083,0,3.124c0,0.525,0.191,0.924,0.478,1.21
		c0.018,0.022,0.039,0.041,0.058,0.062c0.012,0.01,0.022,0.022,0.034,0.032c0.286,0.291,0.689,0.486,1.219,0.486
		c2.306,0,4.613,0,6.919,0c0,14.58,0,29.161,0,43.741c0,0.967,0.82,1.79,1.79,1.79c1.199,0,2.398,0,3.597,0
		c0.967,0,1.79-0.82,1.79-1.79c0-14.58,0-29.161,0-43.741c2.78,0,5.559,0,8.339,0c0.967,0,1.79-0.82,1.79-1.79
		c0-1.041,0-2.083,0-3.124c0-0.967-0.82-1.79-1.79-1.79c-2.787,0-5.573,0-8.36,0c-0.12-6.387-0.388-14.088,9.115-12.577
		c1.127,0.179,2.265-0.461,2.265-1.726c0-1.041,0-2.083,0-3.124C195.71,181.002,195.159,180.111,194.396,179.989z"/>
	<path fill="#333333" d="M220.898,206.033c0.966,0.069,1.79-0.876,1.79-1.79c0-1.199,0-2.398,0-3.597c0-0.955-0.82-1.806-1.79-1.79
		c-6.525,0.112-13.006,2.215-17.142,6.914c0-1.614,0-3.227,0-4.841c0-0.967-0.82-1.79-1.79-1.79c-1.199,0-2.398,0-3.597,0
		c-0.967,0-1.79,0.82-1.79,1.79c0,16.218,0,32.436,0,48.654c0,0.967,0.82,1.79,1.79,1.79c1.199,0,2.398,0,3.597,0
		c0.967,0,1.79-0.82,1.79-1.79c0-6.683,0-13.365,0-20.048c0-2.176-0.09-4.376,0-6.551
		C204.158,213.248,210.597,205.292,220.898,206.033z"/>
	<path fill="#333333" d="M264.061,244.451c-3.073,0.432-3.251-1.746-3.603-4.416c-0.128-0.968,0-2.043,0-3.015
		c0-3.527,0-7.053,0-10.58c0-5.522,0.831-11.819-0.343-17.272c-2.17-10.075-13.517-11.958-22.248-10.934
		c-10.133,1.189-15.745,7.687-16.58,17.651c-0.081,0.965,0.885,1.79,1.79,1.79c1.199,0,2.398,0,3.598,0
		c1.039,0,1.692-0.825,1.79-1.79c0.977-9.646,10.326-13.052,18.939-10.485c4.353,1.297,8.79,9.421,4.278,13.258
		c-1.971,1.676-5.844,1.526-8.24,1.733c-8.53,0.737-19.486,1.164-23.506,10.189c-3.823,8.583,0.578,18.494,9.506,21.025
		c5.149,1.46,11.165,1.284,16.162-0.653c2.029-0.786,3.937-1.862,5.623-3.242c0.225-0.184,1.472-1.45,2.568-2.77
		c1.148,4.839,4.397,7.335,11.221,5.991c0.762-0.15,1.314-0.983,1.314-1.726c0-1.01,0-2.019,0-3.029
		C266.326,244.895,265.188,244.293,264.061,244.451z M232.444,228.498c3.047-1.003,6.382-1.152,9.564-1.451
		c3.754-0.353,7.885-0.351,11.329-1.888c0.063,2.491,0.116,5.005-0.224,7.438c-0.813,5.822-4.673,10.778-10.402,12.503
		c-4.225,1.272-11.75,1.423-14.961-2.316C223.402,237.721,226.698,230.39,232.444,228.498z"/>
	<path fill="#333333" d="M326.114,199.063c-4.495-1.558-9.998-1.495-14.405,0.344c-1.796,0.749-3.385,1.838-4.769,3.202
		c-0.24,0.236-1.788,2.047-2.737,3.568c-5.755-10.454-21.122-10.365-28.6-1.717c0-1.176,0-2.352,0-3.528
		c0-0.967-0.82-1.79-1.79-1.79c-1.199,0-2.398,0-3.597,0c-0.525,0-0.924,0.191-1.21,0.478c-0.021,0.018-0.04,0.038-0.061,0.058
		c-0.011,0.012-0.022,0.023-0.033,0.035c-0.291,0.286-0.486,0.689-0.486,1.219c0,16.218,0,32.436,0,48.654
		c0,0.967,0.82,1.79,1.79,1.79c1.199,0,2.398,0,3.597,0c0.967,0,1.79-0.82,1.79-1.79c0-6.511,0-13.023,0-19.534
		c0-2.995-0.089-6.005,0-8.999c0.245-8.214,5.153-17.541,14.941-16.187c10.823,1.497,8.364,17.085,8.364,25.1
		c0,6.54,0,13.079,0,19.619c0,0.967,0.82,1.79,1.79,1.79c1.199,0,2.398,0,3.597,0c0.967,0,1.79-0.82,1.79-1.79
		c0-6.692,0-13.383,0-20.075c0-2.815-0.079-5.644,0-8.458c0.232-8.291,5.444-19.332,15.957-16.077
		c9.658,2.99,7.348,16.438,7.348,24.404c0,6.735,0,13.47,0,20.206c0,0.967,0.82,1.79,1.79,1.79c1.199,0,2.398,0,3.597,0
		c0.967,0,1.79-0.82,1.79-1.79c0-10.91,0.156-21.832,0-32.741C336.455,209.32,333.854,201.746,326.114,199.063z"/>
	<path fill="#333333" d="M387.961,225.731c0.59-12.419-5.468-25.326-18.809-27.423c-14.887-2.34-25.74,8.65-27.462,22.832
		c-1.61,13.255,3.843,28.473,18.421,30.996c13.686,2.368,24.494-5.254,27.408-18.545c0.247-1.126-0.514-2.265-1.726-2.265
		c-1.199,0-2.398,0-3.598,0c-0.785,0-1.518,0.556-1.726,1.314c-2.549,9.327-10.244,15.356-20.223,12.62
		c-7.938-2.177-11.171-10.195-11.606-17.737c12.51,0,25.021,0,37.531,0C387.173,227.521,387.915,226.699,387.961,225.731z
		 M365.206,204.708c9.441,0.042,14.212,7.802,15.38,16.11c-10.553,0-21.105,0-31.658,0
		C350.372,212.325,355.606,204.665,365.206,204.708z"/>
</g>
<g>
</g>
<g>
</g>
<g>
</g>
<g>
</g>
<g>
</g>
<g>
</g>
<g>
</g>
<g>
</g>
<g>
</g>
<g>
</g>
<g>
</g>
<g>
</g>
<g>
</g>
<g>
</g>
<g>
</g>
</svg>
